<?xml version="1.0" encoding="utf-8"?>
<!-- Generator: Adobe Illustrator 26.5.0, SVG Export Plug-In . SVG Version: 6.00 Build 0)  -->
<svg version="1.1" id="图层_1" xmlns="http://www.w3.org/2000/svg" xmlns:xlink="http://www.w3.org/1999/xlink" x="0px" y="0px"
	 viewBox="0 0 256 256" style="enable-background:new 0 0 256 256;" xml:space="preserve">
<style type="text/css">
	.st0{fill:#5386B9;}
	.st1{fill:#F1CF43;}
	.st2{fill:#AF3D2F;}
</style>
<path class="st0" d="M110.5,226.6L110.5,226.6H13.3c-8.1,0-13.2-9-8.7-15.9l0,0l21.6-33.3l9.3-14.4h25.8c8.1,0,14.4,6.6,14.4,14.4
	l0,0H46.3l-21.6,33.3H94C103.3,210.7,110.5,217.9,110.5,226.6z"/>
<path class="st1" d="M176.6,96h-11.1c-6.6,0-12.9-3.3-16.5-9L127,53.4l-23.1,35.7c-2.7,4.2-7.5,6.6-12.3,6.6H79.3l37.8-58.2l2.1-3.3
	c4.2-6.3,13.5-6.3,17.7,0l1.5,2.1L176.6,96z"/>
<path class="st2" d="M176.6,210.7h52.5l-52.2-80.4l-48.9,56.1l-50.1-57l-8.7,13.5c-4.2,6.6-11.4,10.5-19.2,10.5h-8.1l25.8-39.6l0,0
	l3-4.5c1.5-2.1,3.9-3.6,6.3-3.6h0.3c2.4,0,4.8,1.2,6,3.3l45,49.2l44.4-49.5c1.2-2.1,3.6-3.3,6-3.3l0,0c2.4,0,4.5,1.2,6,3.3l3,4.8
	l63,97.3l0.9,1.5c3.9,6.3-0.3,14.4-7.8,14.4h-83.7l0,0C160.7,217.9,167.6,210.7,176.6,210.7z"/>
</svg>
